# xmcd
#
# Track frame offsets: 
#        182
#        24020
#        40092
#        60865
#        75857
#        93625
#        119915
#        143977
#        169787
#        181662
#        233570
#
# Disc length: 3383 seconds
#
# Revision: 3
# Processed by: cddbd v1.5.2PL0 Copyright (c) Steve Scherf et al.
# Submitted via: ExactAudioCopy v0.99pb4
#
DISCID=7a0d350b
DTITLE=Miles Davis - Miles Davis Story CD1
DYEAR=1991
DGENRE=Jazz
TTITLE0=Tutu
TTITLE1=Time after time
TTITLE2=What is it
TTITLE3=Summertime
TTITLE4=Jean-Pierre
TTITLE5=Shout
TTITLE6=Blues for Pablo
TTITLE7=Mr. Pastorius
TTITLE8='Round midnight
TTITLE9=All blues
TTITLE10=Human nature
EXTD=
EXTT0=
EXTT1=
EXTT2=
EXTT3=
EXTT4=
EXTT5=
EXTT6=
EXTT7=
EXTT8=
EXTT9=
EXTT10=
PLAYORDER=
